<?xml version="1.0" standalone="no"?>
<!DOCTYPE svg PUBLIC "-//W3C//DTD SVG 20010904//EN"
 "http://www.w3.org/TR/2001/REC-SVG-20010904/DTD/svg10.dtd">
<svg version="1.0" xmlns="http://www.w3.org/2000/svg"
 width="638.000000pt" height="177.000000pt" viewBox="0 0 638.000000 177.000000"
 preserveAspectRatio="xMidYMid meet">

<g transform="translate(0.000000,177.000000) scale(0.100000,-0.100000)"
fill="#000000" stroke="none">
<path d="M425 1548 c-3 -7 -4 -305 -3 -663 l3 -650 232 -3 233 -2 5 23 c4 13
5 46 3 73 l-3 49 -137 3 -138 3 -2 587 -3 587 -93 3 c-68 2 -94 -1 -97 -10z"/>
<path d="M1680 895 l0 -665 95 0 95 0 2 308 3 307 120 5 120 5 3 40 c2 21 1
54 -3 72 l-6 33 -119 0 -120 0 0 200 0 200 155 0 155 0 0 80 0 80 -250 0 -250
0 0 -665z"/>
<path d="M4167 1498 c-8 -13 -62 -113 -120 -223 -57 -110 -145 -276 -194 -370
-198 -374 -303 -576 -303 -581 0 -11 69 -33 140 -43 289 -43 1030 -24 1130 29
22 12 19 24 -21 81 -10 14 -16 29 -12 33 3 3 34 6 67 6 117 0 326 39 326 61 0
5 -75 116 -167 247 -92 130 -200 284 -240 342 -104 149 -116 163 -133 155 -8
-3 -48 -51 -89 -107 -40 -55 -77 -96 -81 -91 -7 7 -148 271 -224 418 -34 66
-57 78 -79 43z"/>
<path d="M1218 1297 c-71 -16 -136 -61 -162 -113 -24 -45 -33 -155 -17 -196
10 -26 15 -28 63 -28 29 0 59 4 65 8 7 4 17 38 22 76 14 96 40 125 113 126 39
0 50 -4 67 -26 19 -24 21 -40 21 -148 l0 -121 -91 -39 c-214 -92 -299 -207
-287 -390 6 -97 45 -170 109 -204 36 -20 54 -23 104 -19 66 5 134 34 167 72
24 28 38 24 38 -10 0 -50 8 -55 82 -55 l71 0 -6 448 c-3 293 -9 460 -17 485
-15 51 -62 101 -111 121 -55 22 -162 28 -231 13z m172 -722 l0 -175 -32 -20
c-138 -84 -225 127 -114 273 27 35 113 96 139 97 4 0 7 -79 7 -175z"/>
<path d="M2505 1298 c-58 -16 -121 -63 -149 -111 -50 -86 -59 -137 -63 -372
-5 -241 6 -347 47 -442 28 -66 94 -128 152 -143 63 -18 184 -8 235 18 77 40
123 129 123 239 l0 53 -74 0 -73 0 -7 -52 c-13 -97 -51 -137 -120 -124 -70 13
-96 84 -96 261 l0 105 179 0 179 0 12 83 c7 48 11 131 8 193 -4 92 -9 118 -32
167 -28 58 -68 97 -119 116 -43 17 -157 22 -202 9z m143 -150 c30 -33 43 -100
40 -203 l-3 -90 -100 0 -100 0 1 105 c1 159 26 210 104 210 25 0 43 -7 58 -22z"/>
<path d="M3263 1299 c-43 -9 -76 -31 -110 -74 -15 -19 -31 -35 -34 -35 -4 0
-9 18 -12 40 -3 23 -11 47 -17 55 -14 17 -67 20 -104 5 l-26 -10 2 -522 3
-523 90 0 90 0 5 446 c5 477 4 470 56 489 58 22 84 -19 84 -130 l0 -68 43 -4
c56 -5 84 1 92 20 13 34 17 159 6 199 -23 83 -91 129 -168 112z"/>
<path d="M5568 1299 c-128 -11 -205 -75 -244 -204 -25 -82 -38 -326 -26 -483
22 -280 88 -376 266 -389 113 -8 194 24 243 96 26 39 38 81 47 164 l6 57 -80
0 -80 0 0 -32 c0 -92 -42 -148 -112 -148 -79 0 -108 68 -108 254 l0 116 179 0
179 0 7 28 c4 15 10 72 14 127 21 306 -69 434 -291 414z m84 -152 c27 -31 38
-83 38 -189 l0 -97 -52 -6 c-29 -4 -75 -5 -103 -3 l-50 3 -3 84 c-5 138 20
212 78 234 25 9 74 -4 92 -26z"/>
</g>
</svg>
